# xmcd CD database file
#
# Track frame offsets:
#	150
#	13982
#	34387
#	65198
#	83014
#	109008
#	132131
#	164265
#	185384
#	215662
#	233994
#
# Disc length: 3368 seconds
#
# Revision: 1
# Processed by: cddbd v1.5.2PL0 Copyright (c) Steve Scherf et al.
# Submitted via: CDex 1.51
#
DISCID=9b0d260b
DTITLE=Cabijazz - Suena a salsa con jazz
DYEAR=2007
DGENRE=Salsa
TTITLE0=Si cocinas como caminas
TTITLE1=El chancecito
TTITLE2=Caravan - Piraña
TTITLE3=Oleo a una mujer con bikini
TTITLE4=Condenado a muerte
TTITLE5=Cabijazz
TTITLE6=De todas maneras rosas - Sale el sol
TTITLE7=Fin de mundo
TTITLE8=Mulatitud
TTITLE9=Oye mi son
TTITLE10=Salsa y control
EXTD=YEAR: 2007
EXTT0=
EXTT1=
EXTT2=
EXTT3=
EXTT4=
EXTT5=
EXTT6=
EXTT7=
EXTT8=
EXTT9=
EXTT10=
PLAYORDER=
